PathFileType	4	(X/Y/Z)	 s11c0103.trc
DataRate	CameraRate	NumFrames	NumMarkers	Units	OrigDataRate	OrigDataStartFrame	OrigNumFrames
200	200	4	48	mm	200	1751	2000
Frame#	Time	racr			lacr			c7			jug			rlel			rdr			llel			ldr			s2			lic			ric			lasi			rasi			rpsi			lpsi			rgt			lgt			rth1			rth2			rth3			rth4			rlfc			rmfc			rsh1			rsh2			rsh3			rsh4			rlmal			rcal			rtoe			rmt5			lth1			lth2			lth4			lth3			llfc			lmfc			llmal			lcal			lmt5			lsh1			lsh2			lsh3			lsh4			ltoe			SBIKE			LBIKE			RBIKE			
		X1	Y1	Z1	X2	Y2	Z2	X3	Y3	Z3	X4	Y4	Z4	X5	Y5	Z5	X6	Y6	Z6	X7	Y7	Z7	X8	Y8	Z8	X9	Y9	Z9	X10	Y10	Z10	X11	Y11	Z11	X12	Y12	Z12	X13	Y13	Z13	X14	Y14	Z14	X15	Y15	Z15	X16	Y16	Z16	X17	Y17	Z17	X18	Y18	Z18	X19	Y19	Z19	X20	Y20	Z20	X21	Y21	Z21	X22	Y22	Z22	X23	Y23	Z23	X24	Y24	Z24	X25	Y25	Z25	X26	Y26	Z26	X27	Y27	Z27	X28	Y28	Z28	X29	Y29	Z29	X30	Y30	Z30	X31	Y31	Z31	X32	Y32	Z32	X33	Y33	Z33	X34	Y34	Z34	X35	Y35	Z35	X36	Y36	Z36	X37	Y37	Z37	X38	Y38	Z38	X39	Y39	Z39	X40	Y40	Z40	X41	Y41	Z41	X42	Y42	Z42	X43	Y43	Z43	X44	Y44	Z44	X45	Y45	Z45	X46	Y46	Z46	X47	Y47	Z47	X48	Y48	Z48	
1751	8.7550	558.326977	1388.404981	-183.151834	493.648968	1400.437130	-425.102852	463.275864	1463.041385	-293.876290	480.991338	1273.315313	-300.724903	684.096506	1198.066961	-11.922853	800.631701	927.520613	-47.603880	553.433150	1134.899271	-546.199467	790.416867	927.219769	-435.804848	-89.376819	1198.840573	-214.235988	88.807207	1259.694324	-436.088093	156.325092	1193.267314	-42.304165	127.630711	1194.603569	-392.838081	181.696417	1138.672934	-80.422741	-45.015538	1271.235882	-147.283873	-62.717811	1277.016021	-239.696173	73.621473	1036.285070	-22.047217	38.954981	1152.329624	-456.608484	149.221245	918.547515	-16.967163	215.424822	859.167888	-29.394649	242.255041	778.231222	-50.474546	245.525558	880.881540	-36.170818	296.771949	691.633721	-71.550798	301.467825	677.429251	-196.945168	235.488214	548.395624	-57.885848	220.685787	463.458497	-77.105767	166.683369	394.962335	-79.735095	244.494706	456.782723	-108.133087	104.842254	268.684462	-95.160773	40.845928	266.064449	-144.221953	309.113095	164.508397	-134.985051	233.462475	154.051687	-67.536477	181.505580	1114.167803	-475.784788	267.090674	1114.021389	-473.803117	278.069854	1146.773838	-458.413962	344.857376	1069.999405	-483.585805	473.565578	1021.745622	-470.533446	496.746545	1014.756601	-337.958713	273.230880	646.300553	-417.256432	212.752444	640.480343	-377.725334	349.566353	482.300854	-437.303325	418.946910	917.166813	-474.149467	404.186607	833.697618	-459.396244	348.278413	765.999083	-447.607086	436.668121	823.830098	-441.507223	439.026945	446.012063	-369.213941	-204.924204	952.517863	-261.504713	1.174732	82.885541	-460.856363	-15.381509	81.393154	-62.464785	
1752	8.7600	560.193165	1384.963108	-184.712849	494.737119	1397.548860	-425.993709	465.150715	1460.663335	-295.287821	481.111373	1270.695524	-301.526996	685.612532	1196.837810	-11.480875	800.622198	927.338147	-47.317103	552.478381	1132.077301	-547.749486	790.408877	926.992272	-436.418936	-89.202006	1200.093683	-213.411582	88.603137	1260.777371	-436.239625	157.626380	1193.073862	-42.309325	126.634838	1194.742864	-392.731874	182.461113	1137.803399	-80.587578	-44.287702	1272.395792	-146.670139	-62.323698	1278.439218	-239.202155	74.813281	1037.108358	-21.882890	37.835326	1152.444160	-455.639554	151.228615	919.875152	-17.212241	217.999263	861.275924	-28.628053	245.347398	780.392688	-50.426398	247.874001	883.015725	-35.660563	300.958263	694.278486	-71.512551	306.209306	680.253114	-198.062636	236.302095	551.830341	-57.909558	219.633668	467.182746	-77.153939	164.172805	399.812228	-79.822123	243.419671	459.981022	-108.029889	99.478336	275.434861	-95.053133	35.528267	274.875332	-144.223098	300.615896	164.888837	-135.196595	224.505187	156.641459	-67.863207	179.931680	1113.318676	-474.756931	265.580514	1112.746750	-473.259543	276.777625	1145.510293	-458.147783	343.001360	1068.298912	-483.145599	472.347339	1018.907540	-470.039883	494.571826	1011.798152	-337.483804	275.924668	640.133494	-417.720438	214.925776	632.218285	-379.156605	358.602580	479.588409	-437.412746	419.163749	912.902663	-474.110604	405.307962	829.191289	-459.762191	350.129663	760.798545	-448.498374	437.836227	819.702768	-441.590296	449.467111	447.961374	-368.929448	-204.976727	952.461828	-261.352682	1.201609	82.903467	-460.868708	-15.368226	81.374860	-62.438304	
1753	8.7650	561.837668	1381.594875	-186.168366	495.734422	1394.780435	-426.904564	466.922871	1458.385495	-296.617205	481.050202	1268.190899	-302.328948	686.898054	1195.474629	-10.822234	800.493066	927.198264	-46.999970	551.436506	1128.986864	-549.181955	791.313198	927.747230	-438.033032	-89.092846	1201.407591	-212.533499	88.009208	1261.442266	-435.929443	158.410839	1192.809813	-42.481009	126.018872	1194.785278	-393.440566	183.056547	1137.131550	-80.671905	-43.648257	1273.627964	-146.052983	-61.891920	1279.836465	-238.736163	76.073750	1038.152750	-21.614821	36.348178	1152.147453	-454.594684	153.429690	921.441663	-17.587607	220.613493	863.190287	-29.057220	248.818385	782.642531	-50.507096	250.458636	885.116332	-35.510429	306.037630	696.960263	-71.547665	311.559177	682.951706	-197.792849	237.679794	555.359587	-58.007885	219.043403	471.304772	-77.283571	162.094622	405.206726	-79.974830	242.653896	463.506248	-108.182678	94.715848	282.763930	-94.778662	30.693440	284.082517	-144.238436	291.799574	165.094555	-135.623143	215.590903	159.794875	-68.591519	177.991814	1111.746950	-473.817860	263.746133	1110.720483	-472.707724	275.178578	1143.468850	-457.894244	340.670695	1065.698073	-483.103630	471.032006	1014.400358	-469.571449	492.382398	1007.478523	-337.114509	278.132812	632.618976	-418.323530	216.166651	622.478218	-380.926730	367.318174	476.287245	-437.857745	418.919749	907.531997	-474.421398	405.975116	823.535547	-460.354214	351.483692	754.489283	-449.459274	437.638923	813.372387	-440.786603	459.209017	449.700688	-368.256905	-204.903180	952.370038	-261.404144	1.170687	82.887106	-460.818042	-15.375674	81.349185	-62.426651	
1754	8.7700	563.346945	1378.053894	-187.417559	496.639625	1392.250906	-427.934377	468.456844	1456.389798	-297.867333	480.616785	1265.981295	-303.131747	687.851953	1193.949233	-9.989321	800.280722	927.015138	-46.645955	550.332383	1125.762198	-550.561178	791.210930	927.400479	-438.448627	-88.907601	1202.701505	-211.683843	87.489512	1262.282330	-435.926276	159.286414	1192.754711	-42.157618	125.206763	1194.424365	-394.404899	183.489801	1136.645324	-80.833712	-39.872556	1273.838871	-147.779037	-61.382794	1281.086319	-238.187850	77.370156	1039.097934	-21.430213	34.629828	1151.597307	-453.628429	155.881176	922.795971	-18.253067	223.605608	865.188444	-29.352304	252.671825	784.908875	-50.638823	253.275569	887.412119	-35.658997	311.107020	699.710755	-71.725665	316.954336	685.751750	-197.671382	239.333643	559.250492	-58.262192	218.890629	475.546640	-77.517744	160.524799	410.641500	-80.177694	242.307050	467.155325	-108.421744	90.133261	290.401995	-94.709500	26.166778	293.866160	-144.345194	283.291760	166.165087	-135.888867	207.208165	163.520607	-68.534468	175.770907	1109.722289	-473.033244	261.545137	1107.916458	-472.327607	273.307726	1140.613957	-457.687979	338.061498	1062.185485	-482.972657	469.498923	1008.352409	-469.100801	490.241910	1001.827486	-336.855011	279.912470	623.999789	-419.158728	216.963140	610.913239	-382.504061	375.445971	472.116844	-438.408121	418.305571	900.906468	-474.901598	406.068242	816.781079	-461.235166	352.472622	747.166880	-450.412313	437.833427	806.975918	-441.434647	468.558613	451.264232	-367.629912	-204.889204	952.355049	-261.162019	1.153178	82.908764	-460.797372	-15.364279	81.306490	-62.373797	
